<svg xmlns="http://www.w3.org/2000/svg" viewBox="0 0 1792 1120"><defs><linearGradient id="bg" x1="0" y1="0" x2="0" y2="1"><stop stop-color="#0a0e14"/><stop offset="1" stop-color="#06080c"/></linearGradient><linearGradient id="blue" x1="0" y1="0" x2="1" y2="1"><stop stop-color="#6f87ff"/><stop offset="1" stop-color="#8b66f5"/></linearGradient><linearGradient id="bar" x1="0" y1="0" x2="1" y2="0"><stop stop-color="#6883ff"/><stop offset="1" stop-color="#5bd4ff"/></linearGradient><style>text{font-family:Inter,Arial,sans-serif;fill:#f4f7fb}.muted{fill:#929eae}.tiny{font-size:11px}.small{font-size:13px}.label{font-size:12px;font-weight:700}.title{font-size:42px;font-weight:700}.sub{font-size:22px;fill:#aab4c5}.card{fill:#111823;stroke:#293341}.line{stroke:#293341}.nav{font-size:14px;fill:#cbd3df}</style></defs><rect width="1792" height="1120" fill="url(#bg)"/><rect width="292" height="1120" fill="#05080c"/><path d="M292 0V1120M1300 0V1120" stroke="#252d3a"/><rect x="1300" width="492" height="1120" fill="#090e14"/>
<rect x="16" y="18" width="32" height="32" rx="9" fill="#0d121a" stroke="#e0e6ef"/><text x="32" y="40" text-anchor="middle" font-size="12" font-weight="800">S7</text><text x="60" y="42" font-size="20" font-weight="700">ChatGPT</text><text x="151" y="40" font-size="10" letter-spacing="2" fill="#778398">STRATOS</text><rect x="14" y="66" width="264" height="40" rx="10" fill="#11161e" stroke="#303947"/><text x="31" y="91" class="small muted">⌕</text><text x="56" y="91" class="small muted">Search chats, projects, files…</text>
<g class="nav"><rect x="14" y="120" width="264" height="38" rx="8" fill="#1a2029"/><text x="28" y="145">✎</text><text x="56" y="145">New chat</text><text x="28" y="185">▣</text><text x="56" y="185">Projects</text><text x="28" y="225">▤</text><text x="56" y="225">Library</text><text x="28" y="265">◎</text><text x="56" y="265">Agents</text><text x="28" y="305">◉</text><text x="56" y="305">Browse</text><text x="28" y="345">⌘</text><text x="56" y="345">Tools</text></g><line x1="18" y1="366" x2="275" y2="366" class="line"/><text x="23" y="394" font-size="10" letter-spacing="2" fill="#788395">PINNED</text><rect x="14" y="407" width="264" height="38" rx="8" fill="#171e28"/><text x="27" y="432" class="nav" fill="#80cfff">▰</text><text x="54" y="432" class="nav">Atlas Console</text><circle cx="257" cy="426" r="4" fill="#42dc9d"/><text x="27" y="472" class="nav">○</text><text x="54" y="472" class="nav">Orion Release</text><text x="27" y="512" class="nav">○</text><text x="54" y="512" class="nav">Beacon Docs</text><text x="27" y="552" class="nav">○</text><text x="54" y="552" class="nav">Quartz API</text><text x="27" y="592" class="nav">○</text><text x="54" y="592" class="nav">Mobile Onboarding</text><text x="23" y="658" font-size="10" letter-spacing="2" fill="#788395">RECENT</text><rect x="14" y="671" width="264" height="34" rx="7" fill="#171c24"/><text x="27" y="694" class="small">Project panel prototype</text><text x="27" y="730" class="small muted">Release planning</text><text x="27" y="766" class="small muted">Accessibility review</text><line x1="16" y1="1032" x2="278" y2="1032" class="line"/><circle cx="35" cy="1067" r="16" fill="url(#blue)"/><text x="35" y="1071" text-anchor="middle" font-size="10" font-weight="800">DU</text><text x="61" y="1063" class="small" font-weight="700">Demo User</text><text x="61" y="1080" class="tiny muted">Prototype workspace</text>
<text x="327" y="45" class="small muted">▰  Projects  /  </text><text x="430" y="45" class="small" font-weight="700">Atlas Console</text><rect x="747" y="18" width="188" height="40" rx="20" fill="#12171f" stroke="#29313d"/><rect x="751" y="22" width="90" height="32" rx="16" fill="#252c36"/><text x="796" y="43" class="small" text-anchor="middle" font-weight="700">Chat</text><text x="888" y="43" class="small muted" text-anchor="middle">Work</text><rect x="684" y="143" width="222" height="26" rx="13" fill="#0d131b" stroke="#2c3542"/><circle cx="700" cy="156" r="4" fill="#42dc9d"/><text x="714" y="160" font-size="10" fill="#9fb0c6" letter-spacing="1.3">PROJECT CONTEXT ACTIVE</text><text x="796" y="233" class="title" text-anchor="middle">What would you like to work on?</text><text x="796" y="273" class="sub" text-anchor="middle">Chat normally. Keep complex work visible when you need it.</text><rect x="430" y="320" width="732" height="66" rx="22" fill="#131a23" stroke="#394352"/><circle cx="463" cy="353" r="20" fill="#242c38"/><text x="463" y="360" text-anchor="middle" font-size="26">+</text><text x="495" y="359" font-size="16" fill="#93a0b3">Ask anything, plan a task, or @ a project…</text><rect x="958" y="337" width="86" height="32" rx="16" fill="#1c2430" stroke="#2b3542"/><text x="1001" y="358" text-anchor="middle" class="tiny">Astra ▾</text><circle cx="1126" cy="353" r="21" fill="url(#blue)"/><text x="1126" y="360" text-anchor="middle" font-size="20">↑</text><text x="430" y="495" font-size="16" font-weight="700">Your projects</text>
<g><rect x="430" y="512" width="166" height="145" rx="12" class="card"/><circle cx="513" cy="557" r="28" fill="#17314b" stroke="#5db5fb"/><path d="M465 571C494 530 541 529 572 561" fill="none" stroke="#71d0ff" stroke-width="2"/><text x="441" y="620" class="label">Atlas Console</text><text x="441" y="640" class="tiny muted">Product workspace</text><rect x="610" y="512" width="166" height="145" rx="12" class="card"/><path d="M630 580L662 548L693 559L722 532L756 549" fill="none" stroke="#6bd4ff" stroke-width="3"/><text x="621" y="620" class="label">Orion Release</text><text x="621" y="640" class="tiny muted">Launch readiness</text><rect x="790" y="512" width="166" height="145" rx="12" class="card"/><rect x="818" y="530" width="111" height="57" rx="8" fill="#1b2230" stroke="#394457"/><text x="801" y="620" class="label">Beacon Docs</text><text x="801" y="640" class="tiny muted">Knowledge base</text><rect x="970" y="512" width="166" height="145" rx="12" class="card"/><path d="M1010 573L1042 544L1077 563L1108 538" fill="none" stroke="#9a77ff" stroke-width="2"/><text x="981" y="620" class="label">Quartz API</text><text x="981" y="640" class="tiny muted">Platform services</text></g><text x="430" y="705" font-size="16" font-weight="700">Recent activity</text><g class="tiny"><line x1="430" y1="728" x2="1145" y2="728" class="line"/><text x="468" y="755">Updated release checklist</text><text x="882" y="755" class="muted">Orion Release</text><line x1="430" y1="776" x2="1145" y2="776" class="line"/><text x="468" y="803">Completed component regression run</text><text x="882" y="803" class="muted">Atlas Console</text><line x1="430" y1="824" x2="1145" y2="824" class="line"/><text x="468" y="851">Reorganized API migration notes</text><text x="882" y="851" class="muted">Quartz API</text></g>
<text x="1322" y="42" font-size="20" font-weight="700">Project</text><rect x="1397" y="20" width="51" height="22" rx="11" fill="#0d1b17" stroke="#2e7c61"/><text x="1423" y="35" text-anchor="middle" font-size="9" fill="#61e5aa">● LIVE</text><rect x="1317" y="63" width="458" height="45" rx="12" fill="#0b1119" stroke="#29313e"/><rect x="1321" y="67" width="83" height="37" rx="9" fill="#6079f2"/><text x="1362" y="91" class="tiny" text-anchor="middle" font-weight="700">Overview</text><text x="1460" y="91" class="tiny muted" text-anchor="middle">Needs you</text><circle cx="1494" cy="79" r="8" fill="#f2bd62"/><text x="1494" y="82" text-anchor="middle" font-size="8" fill="#211508">1</text><text x="1568" y="91" class="tiny muted" text-anchor="middle">Tasks</text><text x="1638" y="91" class="tiny muted" text-anchor="middle">Runs</text><text x="1706" y="91" class="tiny muted" text-anchor="middle">Files</text><rect x="1317" y="121" width="458" height="130" rx="14" class="card"/><circle cx="1354" cy="161" r="24" fill="#142b45" stroke="#3b4a5f"/><circle cx="1354" cy="161" r="11" fill="#4678d4"/><text x="1392" y="153" class="label">Atlas Console</text><text x="1392" y="174" class="tiny muted">Fictional demo workspace · local fixture data</text><line x1="1332" y1="190" x2="1760" y2="190" class="line"/><text x="1381" y="214" class="tiny" text-anchor="middle">● Synced</text><text x="1537" y="214" class="tiny" text-anchor="middle">18 files</text><text x="1693" y="214" class="tiny" text-anchor="middle">preview</text>
<rect x="1317" y="264" width="458" height="233" rx="14" fill="#18130d" stroke="#5a472a"/><text x="1335" y="290" class="label">Needs you</text><rect x="1687" y="277" width="70" height="24" rx="12" fill="#221a0e" stroke="#70582e"/><text x="1722" y="293" text-anchor="middle" font-size="9" fill="#ffd383">1 approval</text><text x="1335" y="325" font-size="15" font-weight="700">Publish the refreshed dashboard to preview?</text><text x="1335" y="348" class="tiny muted">The agent finished the requested UI update and passed the demo checks.</text><rect x="1335" y="395" width="120" height="50" rx="8" class="card"/><text x="1345" y="417" class="label">7</text><text x="1345" y="433" font-size="9" fill="#8e9aaa">files changed</text><rect x="1467" y="395" width="120" height="50" rx="8" class="card"/><text x="1477" y="417" class="label">12/12</text><text x="1477" y="433" font-size="9" fill="#8e9aaa">checks passed</text><rect x="1599" y="395" width="120" height="50" rx="8" class="card"/><text x="1609" y="417" class="label">Preview</text><text x="1609" y="433" font-size="9" fill="#8e9aaa">target</text><rect x="1335" y="456" width="246" height="30" rx="8" fill="#e9efff"/><text x="1458" y="476" text-anchor="middle" font-size="10" font-weight="700" fill="#131924">Review &amp; approve</text><rect x="1590" y="456" width="167" height="30" rx="8" fill="#151c26" stroke="#3a4556"/><text x="1673" y="476" text-anchor="middle" font-size="10">Ask for changes</text><rect x="1317" y="510" width="458" height="174" rx="14" class="card"/><text x="1335" y="536" class="label">Running</text><text x="1335" y="566" class="label">Visual regression sweep</text><text x="1335" y="585" class="tiny muted">Checking responsive layouts and keyboard states</text><rect x="1335" y="602" width="422" height="7" rx="4" fill="#26303c"/><rect x="1335" y="602" width="287" height="7" rx="4" fill="url(#bar)"/><rect x="1317" y="697" width="458" height="151" rx="14" class="card"/><text x="1335" y="724" class="label">Up next</text><text x="1338" y="768" class="tiny">□  Verify keyboard navigation</text><text x="1338" y="802" class="tiny">□  Generate concise release notes</text><text x="1338" y="836" class="tiny">□  Prepare staging handoff</text><rect x="1317" y="862" width="458" height="116" rx="14" class="card"/><text x="1335" y="889" class="label">Connected tools</text><text x="1350" y="935" class="tiny">⌘ Open in Codex</text><text x="1460" y="935" class="tiny">◉ GitHub</text><text x="1550" y="935" class="tiny">▲ Preview</text><text x="1645" y="935" class="tiny">▦ Design</text><rect x="1317" y="991" width="458" height="61" rx="14" class="card"/><text x="1335" y="1016" class="label">Advanced</text><text x="1335" y="1035" font-size="9" fill="#8d99a9">permissions · model · logs · evidence · integrations</text><rect x="1317" y="1065" width="458" height="42" rx="12" fill="#0f151e" stroke="#2b3441"/><text x="1335" y="1083" font-size="8" letter-spacing="1" fill="#b3bfd0">STRATOS PRINCIPLE</text><text x="1335" y="1098" font-size="9" fill="#8390a1">Conversation first. Project state appears when work needs visibility or a decision.</text></svg>